<svg xmlns="http://www.w3.org/2000/svg" width="80" height="80" viewBox="0 0 80 80">
  <g id="Group_69051" data-name="Group 69051" transform="translate(-200 -11530)">
    <g id="Group_68227" data-name="Group 68227" transform="translate(130 135)">
      <circle id="Ellipse_626" data-name="Ellipse 626" cx="40" cy="40" r="40" transform="translate(70 11395)" fill="rgba(159,133,236,0.1)"/>
    </g>
    <g id="layer2" transform="translate(139 11549)">
      <g id="g50407" transform="translate(82 2)">
        <g id="Group_66114" data-name="Group 66114">
          <path id="circle49013" d="M56.686,2a9.693,9.693,0,1,0,9.693,9.693A9.714,9.714,0,0,0,56.686,2Zm0,2.77a6.924,6.924,0,1,1-6.924,6.924A6.9,6.9,0,0,1,56.686,4.77Z" transform="translate(-40.355 -2)" fill="#5a5a5a"/>
          <path id="path49015" d="M42.853,26.49A5.5,5.5,0,0,0,47.69,35h2.425a1.385,1.385,0,0,0,0-2.77H47.69a2.982,2.982,0,0,1-2.644-1.35,2.743,2.743,0,0,1,.137-2.978c2.883-4.994,7.715-8.111,13.034-8.133C63.544,19.78,68.383,22.9,71.27,27.9a2.743,2.743,0,0,1,.137,2.978,2.982,2.982,0,0,1-2.644,1.35H49.525a1.385,1.385,0,0,0,0,2.77H68.763A5.5,5.5,0,0,0,73.6,26.49c-3.314-5.74-9.019-9.476-15.376-9.474S46.165,20.754,42.853,26.49Z" transform="translate(-42 3.004)" fill="#5a5a5a"/>
          <path id="path49431" d="M67.539,11a1.385,1.385,0,0,0-1.385,1.385v2.77h-2.77a1.385,1.385,0,1,0,0,2.77h2.77v2.77a1.385,1.385,0,1,0,2.77,0v-2.77h2.77a1.385,1.385,0,0,0,0-2.77h-2.77v-2.77A1.385,1.385,0,0,0,67.539,11Z" transform="translate(-35.078 1.115)" fill="#5a5a5a"/>
        </g>
      </g>
    </g>
  </g>
</svg>
